<mxfile host="app.diagrams.net" modified="2024-03-01T15:58:14.113Z" agent="Mozilla/5.0 (Windows NT 10.0; Win64; x64; rv:123.0) Gecko/20100101 Firefox/123.0" etag="zD-ZKlLSUE7CGjDLpFY6" version="23.1.4" type="device">
  <diagram name="Page-1" id="dFmc4SeiALAdxSmlRPcr">
    <mxGraphModel dx="1195" dy="588" grid="1" gridSize="10" guides="1" tooltips="1" connect="1" arrows="1" fold="1" page="1" pageScale="1" pageWidth="827" pageHeight="1169" math="0" shadow="0">
      <root>
        <mxCell id="0" />
        <mxCell id="1" parent="0" />
        <mxCell id="OYaM7oI7Gwu251D2yHhQ-25" value="" style="shape=table;startSize=0;container=1;collapsible=0;childLayout=tableLayout;fontSize=15;align=center;fontFamily=Lucida Console;strokeWidth=1;fillColor=none;" parent="1" vertex="1">
          <mxGeometry x="80" y="520" width="660" height="120" as="geometry" />
        </mxCell>
        <mxCell id="OYaM7oI7Gwu251D2yHhQ-26" value="" style="shape=tableRow;horizontal=0;startSize=0;swimlaneHead=0;swimlaneBody=0;strokeColor=inherit;top=0;left=0;bottom=0;right=0;collapsible=0;dropTarget=0;fillColor=none;points=[[0,0.5],[1,0.5]];portConstraint=eastwest;fontSize=15;fontFamily=Lucida Console;strokeWidth=2;" parent="OYaM7oI7Gwu251D2yHhQ-25" vertex="1">
          <mxGeometry width="660" height="60" as="geometry" />
        </mxCell>
        <mxCell id="OYaM7oI7Gwu251D2yHhQ-27" value="signal" style="shape=partialRectangle;html=1;whiteSpace=wrap;connectable=0;strokeColor=inherit;overflow=hidden;fillColor=none;top=0;left=0;bottom=0;right=0;pointerEvents=1;fontSize=15;fontFamily=Lucida Console;align=center;strokeWidth=2;" parent="OYaM7oI7Gwu251D2yHhQ-26" vertex="1">
          <mxGeometry width="240" height="60" as="geometry">
            <mxRectangle width="240" height="60" as="alternateBounds" />
          </mxGeometry>
        </mxCell>
        <mxCell id="OYaM7oI7Gwu251D2yHhQ-28" value="" style="shape=partialRectangle;html=1;whiteSpace=wrap;connectable=0;strokeColor=inherit;overflow=hidden;fillColor=none;top=0;left=0;bottom=0;right=0;pointerEvents=1;fontSize=15;fontFamily=Lucida Console;align=center;strokeWidth=2;" parent="OYaM7oI7Gwu251D2yHhQ-26" vertex="1">
          <mxGeometry x="240" width="420" height="60" as="geometry">
            <mxRectangle width="420" height="60" as="alternateBounds" />
          </mxGeometry>
        </mxCell>
        <mxCell id="OYaM7oI7Gwu251D2yHhQ-30" value="" style="shape=tableRow;horizontal=0;startSize=0;swimlaneHead=0;swimlaneBody=0;strokeColor=inherit;top=0;left=0;bottom=0;right=0;collapsible=0;dropTarget=0;fillColor=none;points=[[0,0.5],[1,0.5]];portConstraint=eastwest;fontSize=15;fontFamily=Lucida Console;strokeWidth=2;" parent="OYaM7oI7Gwu251D2yHhQ-25" vertex="1">
          <mxGeometry y="60" width="660" height="60" as="geometry" />
        </mxCell>
        <mxCell id="OYaM7oI7Gwu251D2yHhQ-31" value="map(signal, |x| x * 10)" style="shape=partialRectangle;html=1;whiteSpace=wrap;connectable=0;strokeColor=inherit;overflow=hidden;fillColor=none;top=0;left=0;bottom=0;right=0;pointerEvents=1;fontSize=15;fontFamily=Lucida Console;align=center;strokeWidth=2;" parent="OYaM7oI7Gwu251D2yHhQ-30" vertex="1">
          <mxGeometry width="240" height="60" as="geometry">
            <mxRectangle width="240" height="60" as="alternateBounds" />
          </mxGeometry>
        </mxCell>
        <mxCell id="OYaM7oI7Gwu251D2yHhQ-32" value="" style="shape=partialRectangle;html=1;whiteSpace=wrap;connectable=0;strokeColor=inherit;overflow=hidden;fillColor=none;top=0;left=0;bottom=0;right=0;pointerEvents=1;fontSize=15;fontFamily=Lucida Console;align=center;strokeWidth=2;" parent="OYaM7oI7Gwu251D2yHhQ-30" vertex="1">
          <mxGeometry x="240" width="420" height="60" as="geometry">
            <mxRectangle width="420" height="60" as="alternateBounds" />
          </mxGeometry>
        </mxCell>
        <mxCell id="OYaM7oI7Gwu251D2yHhQ-38" value="" style="group;fontFamily=Lucida Console;fontSize=15;strokeWidth=2;" parent="1" vertex="1" connectable="0">
          <mxGeometry x="330" y="590" width="400" height="40" as="geometry" />
        </mxCell>
        <mxCell id="OYaM7oI7Gwu251D2yHhQ-2" value="" style="endArrow=classic;html=1;rounded=0;endFill=1;fontFamily=Lucida Console;fontSize=15;strokeWidth=2;" parent="OYaM7oI7Gwu251D2yHhQ-38" edge="1">
          <mxGeometry width="50" height="50" relative="1" as="geometry">
            <mxPoint x="280" y="20.000000000000114" as="sourcePoint" />
            <mxPoint x="400" y="20" as="targetPoint" />
          </mxGeometry>
        </mxCell>
        <mxCell id="OYaM7oI7Gwu251D2yHhQ-16" value="" style="endArrow=none;html=1;rounded=0;endFill=0;fontFamily=Lucida Console;fontSize=15;strokeWidth=2;" parent="OYaM7oI7Gwu251D2yHhQ-38" edge="1">
          <mxGeometry width="50" height="50" relative="1" as="geometry">
            <mxPoint y="20" as="sourcePoint" />
            <mxPoint x="39.999999999999886" y="20.000000000000114" as="targetPoint" />
          </mxGeometry>
        </mxCell>
        <mxCell id="OYaM7oI7Gwu251D2yHhQ-21" value="" style="endArrow=none;html=1;rounded=0;endFill=0;fontFamily=Lucida Console;fontSize=15;strokeWidth=2;" parent="OYaM7oI7Gwu251D2yHhQ-38" target="OYaM7oI7Gwu251D2yHhQ-17" edge="1">
          <mxGeometry width="50" height="50" relative="1" as="geometry">
            <mxPoint x="79.99999999999989" y="20.000000000000114" as="sourcePoint" />
            <mxPoint x="240" y="20" as="targetPoint" />
          </mxGeometry>
        </mxCell>
        <mxCell id="OYaM7oI7Gwu251D2yHhQ-20" value="" style="endArrow=none;html=1;rounded=0;endFill=0;fontFamily=Lucida Console;fontSize=15;strokeWidth=2;" parent="OYaM7oI7Gwu251D2yHhQ-38" target="OYaM7oI7Gwu251D2yHhQ-19" edge="1">
          <mxGeometry width="50" height="50" relative="1" as="geometry">
            <mxPoint x="160" y="20.000000000000114" as="sourcePoint" />
            <mxPoint x="400" y="20" as="targetPoint" />
          </mxGeometry>
        </mxCell>
        <mxCell id="OYaM7oI7Gwu251D2yHhQ-39" value="" style="group;fontFamily=Lucida Console;fontSize=15;strokeWidth=2;" parent="1" vertex="1" connectable="0">
          <mxGeometry x="330" y="530" width="400" height="40" as="geometry" />
        </mxCell>
        <mxCell id="OYaM7oI7Gwu251D2yHhQ-1" value="" style="endArrow=classic;html=1;rounded=0;fontFamily=Lucida Console;fontSize=15;strokeWidth=2;" parent="OYaM7oI7Gwu251D2yHhQ-39" edge="1">
          <mxGeometry width="50" height="50" relative="1" as="geometry">
            <mxPoint x="280" y="20.000000000000114" as="sourcePoint" />
            <mxPoint x="400" y="20" as="targetPoint" />
          </mxGeometry>
        </mxCell>
        <mxCell id="OYaM7oI7Gwu251D2yHhQ-6" value="" style="endArrow=none;html=1;rounded=0;endFill=0;fontFamily=Lucida Console;fontSize=15;strokeWidth=2;" parent="OYaM7oI7Gwu251D2yHhQ-39" edge="1">
          <mxGeometry width="50" height="50" relative="1" as="geometry">
            <mxPoint y="20" as="sourcePoint" />
            <mxPoint x="39.999999999999886" y="20.000000000000114" as="targetPoint" />
          </mxGeometry>
        </mxCell>
        <mxCell id="OYaM7oI7Gwu251D2yHhQ-9" value="" style="endArrow=none;html=1;rounded=0;endFill=0;fontFamily=Lucida Console;fontSize=15;strokeWidth=2;" parent="OYaM7oI7Gwu251D2yHhQ-39" target="OYaM7oI7Gwu251D2yHhQ-7" edge="1">
          <mxGeometry width="50" height="50" relative="1" as="geometry">
            <mxPoint x="79.99999999999989" y="20.000000000000114" as="sourcePoint" />
            <mxPoint x="400" y="20" as="targetPoint" />
          </mxGeometry>
        </mxCell>
        <mxCell id="OYaM7oI7Gwu251D2yHhQ-10" value="" style="endArrow=none;html=1;rounded=0;endFill=0;fontFamily=Lucida Console;fontSize=15;strokeWidth=2;" parent="OYaM7oI7Gwu251D2yHhQ-39" target="OYaM7oI7Gwu251D2yHhQ-8" edge="1">
          <mxGeometry width="50" height="50" relative="1" as="geometry">
            <mxPoint x="160" y="20.000000000000114" as="sourcePoint" />
            <mxPoint x="400" y="20" as="targetPoint" />
          </mxGeometry>
        </mxCell>
        <mxCell id="lXC4VtZMqrsNa6-6QVXp-1" value="1" style="rounded=1;whiteSpace=wrap;html=1;fillColor=#dae8fc;strokeColor=#6c8ebf;strokeWidth=2;fontFamily=Lucida Console;fontSize=15;arcSize=50;" vertex="1" parent="OYaM7oI7Gwu251D2yHhQ-39">
          <mxGeometry x="40" width="80" height="40" as="geometry" />
        </mxCell>
        <mxCell id="lXC4VtZMqrsNa6-6QVXp-2" value="2" style="rounded=1;whiteSpace=wrap;html=1;fillColor=#d5e8d4;strokeColor=#82b366;strokeWidth=2;fontFamily=Lucida Console;fontSize=15;arcSize=50;" vertex="1" parent="OYaM7oI7Gwu251D2yHhQ-39">
          <mxGeometry x="120" width="120" height="40" as="geometry" />
        </mxCell>
        <mxCell id="lXC4VtZMqrsNa6-6QVXp-3" value="3" style="rounded=1;whiteSpace=wrap;html=1;fillColor=#f8cecc;strokeColor=#b85450;strokeWidth=2;fontFamily=Lucida Console;fontSize=15;arcSize=50;" vertex="1" parent="OYaM7oI7Gwu251D2yHhQ-39">
          <mxGeometry x="240" width="140" height="40" as="geometry" />
        </mxCell>
        <mxCell id="lXC4VtZMqrsNa6-6QVXp-4" value="10" style="rounded=1;whiteSpace=wrap;html=1;fillColor=#dae8fc;strokeColor=#6c8ebf;strokeWidth=2;fontFamily=Lucida Console;fontSize=15;arcSize=50;" vertex="1" parent="1">
          <mxGeometry x="370" y="590" width="80" height="40" as="geometry" />
        </mxCell>
        <mxCell id="lXC4VtZMqrsNa6-6QVXp-6" value="20" style="rounded=1;whiteSpace=wrap;html=1;fillColor=#d5e8d4;strokeColor=#82b366;strokeWidth=2;fontFamily=Lucida Console;fontSize=15;arcSize=50;" vertex="1" parent="1">
          <mxGeometry x="450" y="590" width="120" height="40" as="geometry" />
        </mxCell>
        <mxCell id="lXC4VtZMqrsNa6-6QVXp-5" value="30" style="rounded=1;whiteSpace=wrap;html=1;fillColor=#f8cecc;strokeColor=#b85450;strokeWidth=2;fontFamily=Lucida Console;fontSize=15;arcSize=50;" vertex="1" parent="1">
          <mxGeometry x="570" y="590" width="140" height="40" as="geometry" />
        </mxCell>
      </root>
    </mxGraphModel>
  </diagram>
</mxfile>
